<svg width="174" height="49" viewBox="0 0 174 49" fill="none" xmlns="http://www.w3.org/2000/svg">
<path d="M20.8272 0.253975C10.6651 1.67345 2.18051 9.89996 0.373846 20.1266C-1.49725 30.7404 3.79348 41.3865 13.1491 46.2256C15.7623 47.5806 18.569 48.129 21.2789 49C23.3112 49 25.376 49 27.4083 49C27.6019 48.6452 27.9568 48.742 28.2472 48.6774C39.4739 47.1289 48.5715 37.0636 48.9909 25.7077C49.6038 9.99674 36.4414 -1.90749 20.8272 0.253975ZM24.5372 44.161C13.6652 44.161 4.8581 35.3537 4.8581 24.4819C4.8581 13.5777 13.633 4.80274 24.505 4.80274C35.3768 4.80274 44.2163 13.6099 44.2163 24.4819C44.2163 35.3537 35.4091 44.161 24.5372 44.161Z" fill="#63DB3E"/>
<path d="M25.5372 21.1912C25.5372 19.4168 25.6017 17.6425 25.5049 15.8682C25.4404 14.7713 25.8598 14.5132 26.8921 14.5132C29.9569 14.5132 29.9569 14.4486 29.9569 17.578C29.9569 20.5782 29.9247 23.5785 29.9891 26.5788C30.0215 27.6434 29.7634 28.0627 28.602 28.0627C25.5695 28.0305 25.5694 28.0951 25.5694 25.0302C25.5372 23.772 25.5372 22.4816 25.5372 21.1912Z" fill="#64DB3F"/>
<path d="M23.6016 22.0301C23.6016 23.7076 23.5694 25.3529 23.6016 27.0306C23.6339 27.7725 23.3758 28.0306 22.6015 28.0629C19.3109 28.2564 19.3109 28.2564 19.3109 24.9981C19.3109 22.643 19.3755 20.288 19.2787 17.933C19.2141 16.7716 19.6336 16.3522 20.7304 16.1586C23.6339 15.6425 23.6339 15.6102 23.6339 18.5137C23.6016 19.6751 23.6016 20.8687 23.6016 22.0301Z" fill="#63DB3E"/>
<path d="M30.9893 34.3858C29.5376 34.3858 28.0859 34.3535 26.6664 34.3858C25.8276 34.4181 25.5696 34.0955 25.5372 33.2567C25.376 29.966 25.3437 29.966 28.6021 29.966C30.7313 29.966 32.8928 29.9984 35.022 29.9338C35.9253 29.9016 36.1834 30.1919 36.2156 31.1274C36.2802 34.3858 36.3124 34.3858 33.0863 34.3858C32.3766 34.3858 31.6668 34.3858 30.9893 34.3858Z" fill="#64DB3F"/>
<path d="M31.8604 22.1591C31.8604 20.6105 31.8927 19.0298 31.8604 17.4812C31.8282 16.707 32.0217 16.5134 32.8928 16.6102C36.1834 17.0619 36.1834 17.0296 36.1834 20.3202C36.1834 22.514 36.1512 24.7399 36.1834 26.9337C36.2156 27.7725 35.9576 28.0305 35.0866 28.0628C31.8604 28.1596 31.8604 28.1918 31.8604 24.9012C31.8604 23.9979 31.8604 23.0947 31.8604 22.1591Z" fill="#63DB3E"/>
<path d="M17.4077 22.9978C17.4077 23.7075 17.4077 24.385 17.4077 25.0948C17.4077 28.1273 16.7302 28.6434 13.6654 28.0627C12.9557 27.9337 12.9879 27.5144 12.9879 27.0304C12.9879 24.5463 13.0201 22.0945 12.9879 19.6104C12.9879 18.8039 13.2782 18.4813 14.0525 18.3522C17.4077 17.707 17.4077 17.6748 17.4077 21.0944C17.4077 21.7074 17.4077 22.3526 17.4077 22.9978Z" fill="#64DB3F"/>
<path d="M63.6822 31.9539C62.5893 31.9539 61.544 31.7639 60.5462 31.3838C59.5642 30.9878 58.6931 30.4176 57.9328 29.6732C57.1726 28.913 56.5707 28.0023 56.1273 26.9411C55.6996 25.8641 55.4858 24.6366 55.4858 23.2587C55.4858 22.0708 55.7075 20.97 56.151 19.9564C56.5945 18.9427 57.2043 18.0558 57.9804 17.2955C58.7723 16.5194 59.6909 15.9176 60.7362 15.4899C61.7816 15.0623 62.914 14.8485 64.1336 14.8485C65.6541 14.8485 67.032 15.1811 68.2674 15.8463C69.5028 16.4957 70.4214 17.3905 71.0233 18.5309L67.5784 21.168C67.2458 20.5028 66.7469 19.9722 66.0817 19.5762C65.4165 19.1644 64.7117 18.9585 63.9673 18.9585C63.4129 18.9585 62.9061 19.0694 62.4468 19.2911C61.9875 19.5129 61.5836 19.8217 61.2351 20.2177C60.9025 20.6137 60.6412 21.0888 60.4511 21.6431C60.2769 22.1817 60.1898 22.7756 60.1898 23.425C60.1898 24.0902 60.2848 24.692 60.4749 25.2305C60.665 25.769 60.9263 26.2363 61.2589 26.6322C61.6073 27.0124 62.0191 27.3133 62.4943 27.535C62.9694 27.7409 63.5 27.8439 64.0861 27.8439C64.8305 27.8439 65.5432 27.6617 66.2242 27.2975C66.9053 26.9173 67.523 26.3867 68.0773 25.7057V30.2196C66.8103 31.3758 65.3452 31.9539 63.6822 31.9539ZM67.8398 26.1808H64.7275V22.8548H71.6647V31.8351H67.8398V26.1808Z" fill="#63DB3E"/>
<path d="M140.348 31.9539C139.255 31.9539 138.21 31.7639 137.212 31.3838C136.23 30.9878 135.359 30.4176 134.599 29.6732C133.838 28.913 133.236 28.0023 132.793 26.9411C132.365 25.8641 132.152 24.6366 132.152 23.2587C132.152 22.0708 132.373 20.97 132.817 19.9564C133.26 18.9427 133.87 18.0558 134.646 17.2955C135.438 16.5194 136.357 15.9176 137.402 15.4899C138.447 15.0623 139.58 14.8485 140.799 14.8485C142.32 14.8485 143.698 15.1811 144.933 15.8463C146.168 16.4957 147.087 17.3905 147.689 18.5309L144.244 21.168C143.912 20.5028 143.413 19.9722 142.747 19.5762C142.082 19.1644 141.377 18.9585 140.633 18.9585C140.079 18.9585 139.572 19.0694 139.112 19.2911C138.653 19.5129 138.249 19.8217 137.901 20.2177C137.568 20.6137 137.307 21.0888 137.117 21.6431C136.943 22.1817 136.856 22.7756 136.856 23.425C136.856 24.0902 136.951 24.692 137.141 25.2305C137.331 25.769 137.592 26.2363 137.925 26.6322C138.273 27.0124 138.685 27.3133 139.16 27.535C139.635 27.7409 140.166 27.8439 140.752 27.8439C141.496 27.8439 142.209 27.6617 142.89 27.2975C143.571 26.9173 144.189 26.3867 144.743 25.7057V30.2196C143.476 31.3758 142.011 31.9539 140.348 31.9539ZM144.505 26.1808H141.393V22.8548H148.33V31.8351H144.505V26.1808Z" fill="white"/>
<path d="M151.455 31.7164V14.8485H156.087V31.7164H151.455Z" fill="white"/>
<path d="M173.228 18.8873H168.382V31.7164H163.749V18.8873H158.879V14.8485H173.228V18.8873Z" fill="white"/>
<path d="M79.5879 14.8485H84.767L90.1362 31.7164H85.4322L84.4107 28.4141H79.9205L78.9227 31.7164H74.1949L79.5879 14.8485ZM83.6742 25.3256L82.1775 19.3862L80.6095 25.3256H83.6742Z" fill="#63DB3E"/>
<path d="M119.679 14.8485H124.858L130.227 31.7164H125.523L124.502 28.4141H120.011L119.014 31.7164H114.286L119.679 14.8485ZM123.765 25.3256L122.268 19.3862L120.7 25.3256H123.765Z" fill="#63DB3E"/>
<path d="M106.268 31.7164V22.831L103.44 29.0793H100.97L98.1425 22.831V31.7164H93.5098V14.8485H98.5702L102.205 22.7835L105.864 14.8485H110.9V31.7164H106.268Z" fill="#63DB3E"/>
</svg>
