<svg width="117" height="33" viewBox="0 0 117 33" fill="none" xmlns="http://www.w3.org/2000/svg">
<path d="M14.0265 0.171044C7.18261 1.12702 1.4685 6.66732 0.251774 13.5547C-1.00836 20.7027 2.55479 27.8725 8.85552 31.1315C10.6154 32.0441 12.5056 32.4134 14.3307 33C15.6994 33 17.09 33 18.4587 33C18.589 32.7611 18.8281 32.8262 19.0236 32.7828C26.5845 31.7399 32.7114 24.9612 32.9939 17.3134C33.4066 6.7325 24.5422 -1.28464 14.0265 0.171044ZM16.525 29.7411C9.20313 29.7411 3.27178 23.8096 3.27178 16.4878C3.27178 9.14417 9.18143 3.2345 16.5033 3.2345C23.8252 3.2345 29.7783 9.16587 29.7783 16.4878C29.7783 23.8096 23.847 29.7411 16.525 29.7411Z" fill="#63DB3E"/>
<path d="M17.1985 14.2716C17.1985 13.0766 17.2419 11.8817 17.1768 10.6867C17.1334 9.94803 17.4158 9.77419 18.111 9.77419C20.1751 9.77419 20.1751 9.73071 20.1751 11.8383C20.1751 13.8588 20.1534 15.8794 20.1968 17.9C20.2185 18.617 20.0447 18.8994 19.2625 18.8994C17.2202 18.8777 17.2202 18.9212 17.2202 16.8571C17.1985 16.0097 17.1985 15.1407 17.1985 14.2716Z" fill="#64DB3F"/>
<path d="M15.8949 14.8366C15.8949 15.9664 15.8732 17.0744 15.8949 18.2043C15.9167 18.7039 15.7429 18.8778 15.2214 18.8995C13.0053 19.0298 13.0053 19.0298 13.0053 16.8355C13.0053 15.2494 13.0488 13.6633 12.9836 12.0773C12.9401 11.2951 13.2226 11.0127 13.9613 10.8824C15.9167 10.5347 15.9167 10.513 15.9167 12.4684C15.8949 13.2505 15.8949 14.0544 15.8949 14.8366Z" fill="#63DB3E"/>
<path d="M20.8704 23.1578C19.8926 23.1578 18.915 23.136 17.959 23.1578C17.3941 23.1795 17.2203 22.9623 17.1985 22.3973C17.09 20.1812 17.0682 20.1812 19.2626 20.1812C20.6966 20.1812 22.1523 20.203 23.5862 20.1595C24.1946 20.1378 24.3684 20.3334 24.3901 20.9634C24.4336 23.1578 24.4553 23.1578 22.2826 23.1578C21.8047 23.1578 21.3266 23.1578 20.8704 23.1578Z" fill="#64DB3F"/>
<path d="M21.457 14.9235C21.457 13.8806 21.4788 12.816 21.457 11.7731C21.4353 11.2516 21.5657 11.1213 22.1523 11.1865C24.3684 11.4907 24.3684 11.4689 24.3684 13.685C24.3684 15.1625 24.3467 16.6615 24.3684 18.139C24.3901 18.7039 24.2164 18.8777 23.6297 18.8995C21.457 18.9646 21.457 18.9863 21.457 16.7702C21.457 16.1619 21.457 15.5536 21.457 14.9235Z" fill="#63DB3E"/>
<path d="M11.7235 15.4883C11.7235 15.9663 11.7235 16.4225 11.7235 16.9006C11.7235 18.9429 11.2673 19.2905 9.20321 18.8994C8.72525 18.8125 8.74695 18.5301 8.74695 18.2042C8.74695 16.5312 8.76865 14.88 8.74695 13.207C8.74695 12.6638 8.94248 12.4466 9.46393 12.3596C11.7235 11.9251 11.7235 11.9034 11.7235 14.2065C11.7235 14.6192 11.7235 15.0538 11.7235 15.4883Z" fill="#64DB3F"/>
<path d="M42.888 21.52C42.152 21.52 41.448 21.392 40.776 21.136C40.1147 20.8693 39.528 20.4853 39.016 19.984C38.504 19.472 38.0987 18.8587 37.8 18.144C37.512 17.4187 37.368 16.592 37.368 15.664C37.368 14.864 37.5173 14.1227 37.816 13.44C38.1147 12.7573 38.5253 12.16 39.048 11.648C39.5813 11.1253 40.2 10.72 40.904 10.432C41.608 10.144 42.3707 10 43.192 10C44.216 10 45.144 10.224 45.976 10.672C46.808 11.1093 47.4267 11.712 47.832 12.48L45.512 14.256C45.288 13.808 44.952 13.4507 44.504 13.184C44.056 12.9067 43.5813 12.768 43.08 12.768C42.7067 12.768 42.3653 12.8427 42.056 12.992C41.7467 13.1413 41.4747 13.3493 41.24 13.616C41.016 13.8827 40.84 14.2027 40.712 14.576C40.5947 14.9387 40.536 15.3387 40.536 15.776C40.536 16.224 40.6 16.6293 40.728 16.992C40.856 17.3547 41.032 17.6693 41.256 17.936C41.4907 18.192 41.768 18.3947 42.088 18.544C42.408 18.6827 42.7653 18.752 43.16 18.752C43.6613 18.752 44.1413 18.6293 44.6 18.384C45.0587 18.128 45.4747 17.7707 45.848 17.312V20.352C44.9947 21.1307 44.008 21.52 42.888 21.52ZM45.688 17.632H43.592V15.392H48.264V21.44H45.688V17.632Z" fill="#63DB3E"/>
<path d="M94.52 21.52C93.784 21.52 93.08 21.392 92.408 21.136C91.7467 20.8693 91.16 20.4853 90.648 19.984C90.136 19.472 89.7307 18.8587 89.432 18.144C89.144 17.4187 89 16.592 89 15.664C89 14.864 89.1493 14.1227 89.448 13.44C89.7467 12.7573 90.1573 12.16 90.68 11.648C91.2133 11.1253 91.832 10.72 92.536 10.432C93.24 10.144 94.0027 10 94.824 10C95.848 10 96.776 10.224 97.608 10.672C98.44 11.1093 99.0587 11.712 99.464 12.48L97.144 14.256C96.92 13.808 96.584 13.4507 96.136 13.184C95.688 12.9067 95.2133 12.768 94.712 12.768C94.3387 12.768 93.9973 12.8427 93.688 12.992C93.3787 13.1413 93.1067 13.3493 92.872 13.616C92.648 13.8827 92.472 14.2027 92.344 14.576C92.2267 14.9387 92.168 15.3387 92.168 15.776C92.168 16.224 92.232 16.6293 92.36 16.992C92.488 17.3547 92.664 17.6693 92.888 17.936C93.1227 18.192 93.4 18.3947 93.72 18.544C94.04 18.6827 94.3973 18.752 94.792 18.752C95.2933 18.752 95.7733 18.6293 96.232 18.384C96.6907 18.128 97.1067 17.7707 97.48 17.312V20.352C96.6267 21.1307 95.64 21.52 94.52 21.52ZM97.32 17.632H95.224V15.392H99.896V21.44H97.32V17.632Z" fill="white"/>
<path d="M102 21.36V10H105.12V21.36H102Z" fill="white"/>
<path d="M116.664 12.72H113.4V21.36H110.28V12.72H107V10H116.664V12.72Z" fill="white"/>
<path d="M53.6 10H57.088L60.704 21.36H57.536L56.848 19.136H53.824L53.152 21.36H49.968L53.6 10ZM56.352 17.056L55.344 13.056L54.288 17.056H56.352Z" fill="#63DB3E"/>
<path d="M80.6 10H84.088L87.704 21.36H84.536L83.848 19.136H80.824L80.152 21.36H76.968L80.6 10ZM83.352 17.056L82.344 13.056L81.288 17.056H83.352Z" fill="#63DB3E"/>
<path d="M71.568 21.36V15.376L69.664 19.584H68L66.096 15.376V21.36H62.976V10H66.384L68.832 15.344L71.296 10H74.688V21.36H71.568Z" fill="#63DB3E"/>
</svg>
